<svg width="202" height="81" viewBox="0 0 202 81" fill="none" xmlns="http://www.w3.org/2000/svg">
<g clip-path="url(#clip0_158_2)">
<path d="M157.679 39.6705C157.591 41.0961 157.501 42.4335 157.058 43.8594H125.852C126.383 48.4057 128.955 51.169 133.83 51.169C138.706 51.169 141.544 49.1188 143.848 46.6225L154.398 52.8619C149.345 59.3681 141.719 63.2919 132.235 63.2919C119.113 63.2919 109.982 52.5065 111.845 39.3131C113.619 26.8345 124.967 16.9385 137.377 16.9385C149.788 16.9385 158.921 27.1018 157.679 39.6705ZM137.29 27.1016C132.414 27.1016 128.867 30.3989 127.184 35.3027L144.116 34.9454L144.204 32.8951C143.673 28.9732 141.1 27.1016 137.29 27.1016Z" fill="#FAF9FB"/>
<path d="M89.0953 63.2919C76.0638 63.2919 66.8426 52.418 68.706 39.3131C70.4796 26.8345 81.9156 16.9385 94.2382 16.9385C103.457 16.9385 110.108 21.6636 113.3 29.2403L101.154 35.4793C99.8243 32.0035 97.4316 30.5777 93.9725 30.5777C88.3864 30.5777 83.6891 34.9454 82.8901 40.9176C82.0911 46.1766 85.017 49.6528 89.9822 49.6528C94.1484 49.6528 97.6054 47.4237 99.5567 44.1264L110.284 51.7915C105.141 59.2796 97.5174 63.2919 89.0953 63.2919Z" fill="#FAF9FB"/>
<path d="M48.7397 62.3998L54.9449 17.8315H69.3068L63.1016 62.3998H48.7397Z" fill="#FAF9FB"/>
<path d="M38.6479 0.00439453H53.0098L44.3182 62.5605H31.0525L31.6438 58.5672C27.7433 61.8645 23.2217 63.2923 18.8778 63.2923C6.73285 63.2923 -1.60144 52.5068 0.259947 39.3135C2.03345 26.8349 12.5826 16.9389 24.0185 16.9389C28.6281 16.9389 32.4406 18.6318 35.4544 20.9511L38.6479 0.00439453ZM21.1825 49.565C26.4132 49.565 31.2006 44.9302 31.9974 39.3135C32.7063 34.4117 29.7805 30.6665 25.1709 30.6665C20.0282 30.6665 15.2409 35.3012 14.444 40.9179C13.735 45.8197 16.6609 49.565 21.1825 49.565Z" fill="#FAF9FB"/>
<path d="M63.8583 12.4344C59.2489 12.4344 56.4107 8.88112 56.944 5.4179C57.2995 2.66494 60.3133 0 64.3017 0C68.9114 0 71.7493 3.55325 71.216 7.01647C70.8605 9.76944 67.8467 12.4344 63.8583 12.4344Z" fill="#FAF9FB"/>
<path d="M201.913 17.83L188.88 61.3508C184.056 77.5196 181.493 81.1465 155.114 80.9954L158.444 69.8433C171.66 69.8433 171.545 69.8433 173.806 62.4084C166.871 62.4084 160.698 57.2634 160.52 49.6799L159.184 17.8296H174.061V43.9722C174.151 44.8645 173.794 47.4477 176.218 47.4477C178.641 47.4477 178.894 44.8648 179.25 43.9725L187.027 17.83H201.913Z" fill="#FAF9FB"/>
</g>
<defs>
<clipPath id="clip0_158_2">
<rect width="202" height="81" fill="white"/>
</clipPath>
</defs>
</svg>
